<svg width="15" height="15" viewBox="0 0 15 15" fill="none" xmlns="http://www.w3.org/2000/svg">
<path opacity="0.4" d="M1.875 5.625H13.125V11.25C13.125 12.6307 12.0057 13.75 10.625 13.75H4.375C2.99429 13.75 1.875 12.6307 1.875 11.25V5.625Z" fill="#28303F"/>
<path d="M10.625 2.1875H4.375C2.99429 2.1875 1.875 3.30679 1.875 4.6875V5.625H13.125V4.6875C13.125 3.30679 12.0057 2.1875 10.625 2.1875Z" fill="#28303F"/>
<path opacity="0.4" fill-rule="evenodd" clip-rule="evenodd" d="M5 0.78125C5.25888 0.78125 5.46875 0.991117 5.46875 1.25V3.125C5.46875 3.38388 5.25888 3.59375 5 3.59375C4.74112 3.59375 4.53125 3.38388 4.53125 3.125V1.25C4.53125 0.991117 4.74112 0.78125 5 0.78125ZM10 0.78125C10.2589 0.78125 10.4688 0.991117 10.4688 1.25V3.125C10.4688 3.38388 10.2589 3.59375 10 3.59375C9.74112 3.59375 9.53125 3.38388 9.53125 3.125V1.25C9.53125 0.991117 9.74112 0.78125 10 0.78125Z" fill="#28303F"/>
</svg>
